{
  "accessors": [
    {
      "bufferView": 2,
      "componentType": 5126,
      "count": 2978,
      "max": [
        14.481328010559082,
        123.86408996582031,
        -14.220974922180176
      ],
      "min": [
        7.663808822631836,
        111.15870666503906,
        -15.822676658630371
      ],
      "type": "VEC3"
    },
    {
      "bufferView": 2,
      "byteOffset": 35736,
      "componentType": 5126,
      "count": 2978,
      "max": [
        1.0,
        1.0,
        0.9999545216560364
      ],
      "min": [
        -1.0,
        -1.0,
        -0.9999898076057434
      ],
      "type": "VEC3"
    },
    {
      "bufferView": 3,
      "componentType": 5126,
      "count": 2978,
      "max": [
        0.9999860525131226,
        1.0,
        1.0,
        1.0
      ],
      "min": [
        -0.9999991655349731,
        -1.0,
        -0.9999130368232727,
        -1.0
      ],
      "type": "VEC4"
    },
    {
      "bufferView": 1,
      "componentType": 5126,
      "count": 2978,
      "max": [
        0.98294597864151,
        0.99609375
      ],
      "min": [
        0.00390625,
        0.00390625
      ],
      "type": "VEC2"
    },
    {
      "bufferView": 0,
      "componentType": 5125,
      "count": 13800,
      "type": "SCALAR"
    },
    {
      "bufferView": 2,
      "byteOffset": 71472,
      "componentType": 5126,
      "count": 2978,
      "max": [
        14.481328010559082,
        123.86408996582031,
        -14.220974922180176
      ],
      "min": [
        7.663808822631836,
        111.15870666503906,
        -15.822676658630371
      ],
      "type": "VEC3"
    },
    {
      "bufferView": 2,
      "byteOffset": 107208,
      "componentType": 5126,
      "count": 2978,
      "max": [
        1.0,
        1.0,
        0.9999545216560364
      ],
      "min": [
        -1.0,
        -1.0,
        -0.9999898076057434
      ],
      "type": "VEC3"
    },
    {
      "bufferView": 3,
      "byteOffset": 47648,
      "componentType": 5126,
      "count": 2978,
      "max": [
        0.9999860525131226,
        1.0,
        1.0,
        1.0
      ],
      "min": [
        -0.9999991655349731,
        -1.0,
        -0.9999130368232727,
        1.0
      ],
      "type": "VEC4"
    },
    {
      "bufferView": 1,
      "byteOffset": 23824,
      "componentType": 5126,
      "count": 2978,
      "max": [
        0.98294597864151,
        0.99609375
      ],
      "min": [
        0.00390625,
        0.00390625
      ],
      "type": "VEC2"
    },
    {
      "bufferView": 0,
      "byteOffset": 55200,
      "componentType": 5125,
      "count": 13800,
      "type": "SCALAR"
    }
  ],
  "asset": {
    "extras": {
      "author": "Armored Interactive (https://sketchfab.com/ychiang6)",
      "license": "CC-BY-4.0 (http://creativecommons.org/licenses/by/4.0/)",
      "source": "https://sketchfab.com/3d-models/a-simple-chinese-tassel-c587e58e0d3741cca4625520195c1ce0",
      "title": "A simple Chinese tassel"
    },
    "generator": "Sketchfab-11.73.0",
    "version": "2.0"
  },
  "bufferViews": [
    {
      "buffer": 0,
      "byteLength": 110400,
      "name": "floatBufferViews",
      "target": 34963
    },
    {
      "buffer": 0,
      "byteLength": 47648,
      "byteOffset": 110400,
      "byteStride": 8,
      "name": "floatBufferViews",
      "target": 34962
    },
    {
      "buffer": 0,
      "byteLength": 142944,
      "byteOffset": 158048,
      "byteStride": 12,
      "name": "floatBufferViews",
      "target": 34962
    },
    {
      "buffer": 0,
      "byteLength": 95296,
      "byteOffset": 300992,
      "byteStride": 16,
      "name": "floatBufferViews",
      "target": 34962
    }
  ],
  "buffers": [
    {
      "byteLength": 396288,
      "uri": "scene.bin"
    }
  ],
  "images": [
    {
      "uri": "textures/material_baseColor.png"
    },
    {
      "uri": "textures/material_metallicRoughness.png"
    },
    {
      "uri": "textures/material_normal.png"
    },
    {
      "uri": "textures/material_1_baseColor.png"
    },
    {
      "uri": "textures/material_1_metallicRoughness.png"
    },
    {
      "uri": "textures/material_1_normal.png"
    }
  ],
  "materials": [
    {
      "doubleSided": true,
      "name": "material",
      "normalTexture": {
        "index": 2
      },
      "occlusionTexture": {
        "index": 1
      },
      "pbrMetallicRoughness": {
        "baseColorTexture": {
          "index": 0
        },
        "metallicRoughnessTexture": {
          "index": 1
        }
      }
    },
    {
      "doubleSided": true,
      "name": "material_1",
      "normalTexture": {
        "index": 5
      },
      "occlusionTexture": {
        "index": 4
      },
      "pbrMetallicRoughness": {
        "baseColorTexture": {
          "index": 3
        },
        "metallicRoughnessTexture": {
          "index": 4
        }
      }
    }
  ],
  "meshes": [
    {
      "name": "TasselTail_L1_UV2_0",
      "primitives": [
        {
          "attributes": {
            "NORMAL": 1,
            "POSITION": 0,
            "TANGENT": 2,
            "TEXCOORD_0": 3
          },
          "indices": 4,
          "material": 0,
          "mode": 4
        }
      ]
    },
    {
      "name": "TasselTail_L2_UV1_0",
      "primitives": [
        {
          "attributes": {
            "NORMAL": 6,
            "POSITION": 5,
            "TANGENT": 7,
            "TEXCOORD_0": 8
          },
          "indices": 9,
          "material": 1,
          "mode": 4
        }
      ]
    }
  ],
  "nodes": [
    {
      "children": [
        1
      ],
      "matrix": [
        1.0,
        0.0,
        0.0,
        0.0,
        0.0,
        2.220446049250313e-16,
        -1.0,
        0.0,
        0.0,
        1.0,
        2.220446049250313e-16,
        0.0,
        0.0,
        0.0,
        0.0,
        1.0
      ],
      "name": "Sketchfab_model"
    },
    {
      "children": [
        2
      ],
      "matrix": [
        0.009999999776482582,
        0.0,
        0.0,
        0.0,
        0.0,
        0.0,
        0.009999999776482582,
        0.0,
        0.0,
        -0.009999999776482582,
        0.0,
        0.0,
        0.0,
        0.0,
        0.0,
        1.0
      ],
      "name": "696cc14620774e8aa15607ea10fb7041.fbx"
    },
    {
      "children": [
        3,
        5
      ],
      "name": "RootNode"
    },
    {
      "children": [
        4
      ],
      "name": "TasselTail_L1"
    },
    {
      "mesh": 0,
      "name": "TasselTail_L1_UV2_0"
    },
    {
      "children": [
        6
      ],
      "matrix": [
        1.0,
        0.0,
        0.0,
        0.0,
        0.0,
        1.0,
        0.0,
        0.0,
        0.0,
        0.0,
        1.0,
        0.0,
        -7.331411838531494,
        0.0,
        0.0,
        1.0
      ],
      "name": "TasselTail_L2"
    },
    {
      "mesh": 1,
      "name": "TasselTail_L2_UV1_0"
    }
  ],
  "samplers": [
    {
      "magFilter": 9729,
      "minFilter": 9987,
      "wrapS": 10497,
      "wrapT": 10497
    }
  ],
  "scene": 0,
  "scenes": [
    {
      "name": "Sketchfab_Scene",
      "nodes": [
        0
      ]
    }
  ],
  "textures": [
    {
      "sampler": 0,
      "source": 0
    },
    {
      "sampler": 0,
      "source": 1
    },
    {
      "sampler": 0,
      "source": 2
    },
    {
      "sampler": 0,
      "source": 3
    },
    {
      "sampler": 0,
      "source": 4
    },
    {
      "sampler": 0,
      "source": 5
    }
  ]
}
